<?xml version="1.0" encoding="utf-8" standalone="no"?>
<!DOCTYPE svg PUBLIC "-//W3C//DTD SVG 1.1//EN"
  "http://www.w3.org/Graphics/SVG/1.1/DTD/svg11.dtd">
<svg xmlns:xlink="http://www.w3.org/1999/xlink" width="413.302812pt" height="325.986375pt" viewBox="0 0 413.302812 325.986375" xmlns="http://www.w3.org/2000/svg" version="1.1">
 <metadata>
  <rdf:RDF xmlns:dc="http://purl.org/dc/elements/1.1/" xmlns:cc="http://creativecommons.org/ns#" xmlns:rdf="http://www.w3.org/1999/02/22-rdf-syntax-ns#">
   <cc:Work>
    <dc:type rdf:resource="http://purl.org/dc/dcmitype/StillImage"/>
    <dc:date>2024-08-17T16:43:14.228149</dc:date>
    <dc:format>image/svg+xml</dc:format>
    <dc:creator>
     <cc:Agent>
      <dc:title>Matplotlib v3.9.1.post1, https://matplotlib.org/</dc:title>
     </cc:Agent>
    </dc:creator>
   </cc:Work>
  </rdf:RDF>
 </metadata>
 <defs>
  <style type="text/css">*{stroke-linejoin: round; stroke-linecap: butt}</style>
 </defs>
 <g id="figure_1">
  <g id="patch_1">
   <path d="M 0 325.986375 
L 413.302812 325.986375 
L 413.302812 0 
L 0 0 
z
" style="fill: #ffffff"/>
  </g>
  <g id="axes_1">
   <g id="patch_2">
    <path d="M 48.982813 288.430125 
L 406.102813 288.430125 
L 406.102813 22.318125 
L 48.982813 22.318125 
z
" style="fill: #ffffff"/>
   </g>
   <g id="matplotlib.axis_1">
    <g id="xtick_1">
     <g id="line2d_1">
      <defs>
       <path id="m312fe81eb8" d="M 0 0 
L 0 3.5 
" style="stroke: #000000; stroke-width: 0.8"/>
      </defs>
      <g>
       <use xlink:href="#m312fe81eb8" x="65.21554" y="288.430125" style="stroke: #000000; stroke-width: 0.8"/>
      </g>
     </g>
     <g id="text_1">
      <!-- 0 -->
      <g transform="translate(62.03429 303.028562) scale(0.1 -0.1)">
       <defs>
        <path id="DejaVuSans-30" d="M 2034 4250 
Q 1547 4250 1301 3770 
Q 1056 3291 1056 2328 
Q 1056 1369 1301 889 
Q 1547 409 2034 409 
Q 2525 409 2770 889 
Q 3016 1369 3016 2328 
Q 3016 3291 2770 3770 
Q 2525 4250 2034 4250 
z
M 2034 4750 
Q 2819 4750 3233 4129 
Q 3647 3509 3647 2328 
Q 3647 1150 3233 529 
Q 2819 -91 2034 -91 
Q 1250 -91 836 529 
Q 422 1150 422 2328 
Q 422 3509 836 4129 
Q 1250 4750 2034 4750 
z
" transform="scale(0.015625)"/>
       </defs>
       <use xlink:href="#DejaVuSans-30"/>
      </g>
     </g>
    </g>
    <g id="xtick_2">
     <g id="line2d_2">
      <g>
       <use xlink:href="#m312fe81eb8" x="108.53169" y="288.430125" style="stroke: #000000; stroke-width: 0.8"/>
      </g>
     </g>
     <g id="text_2">
      <!-- 200 -->
      <g transform="translate(98.98794 303.028562) scale(0.1 -0.1)">
       <defs>
        <path id="DejaVuSans-32" d="M 1228 531 
L 3431 531 
L 3431 0 
L 469 0 
L 469 531 
Q 828 903 1448 1529 
Q 2069 2156 2228 2338 
Q 2531 2678 2651 2914 
Q 2772 3150 2772 3378 
Q 2772 3750 2511 3984 
Q 2250 4219 1831 4219 
Q 1534 4219 1204 4116 
Q 875 4013 500 3803 
L 500 4441 
Q 881 4594 1212 4672 
Q 1544 4750 1819 4750 
Q 2544 4750 2975 4387 
Q 3406 4025 3406 3419 
Q 3406 3131 3298 2873 
Q 3191 2616 2906 2266 
Q 2828 2175 2409 1742 
Q 1991 1309 1228 531 
z
" transform="scale(0.015625)"/>
       </defs>
       <use xlink:href="#DejaVuSans-32"/>
       <use xlink:href="#DejaVuSans-30" x="63.623047"/>
       <use xlink:href="#DejaVuSans-30" x="127.246094"/>
      </g>
     </g>
    </g>
    <g id="xtick_3">
     <g id="line2d_3">
      <g>
       <use xlink:href="#m312fe81eb8" x="151.84784" y="288.430125" style="stroke: #000000; stroke-width: 0.8"/>
      </g>
     </g>
     <g id="text_3">
      <!-- 400 -->
      <g transform="translate(142.30409 303.028562) scale(0.1 -0.1)">
       <defs>
        <path id="DejaVuSans-34" d="M 2419 4116 
L 825 1625 
L 2419 1625 
L 2419 4116 
z
M 2253 4666 
L 3047 4666 
L 3047 1625 
L 3713 1625 
L 3713 1100 
L 3047 1100 
L 3047 0 
L 2419 0 
L 2419 1100 
L 313 1100 
L 313 1709 
L 2253 4666 
z
" transform="scale(0.015625)"/>
       </defs>
       <use xlink:href="#DejaVuSans-34"/>
       <use xlink:href="#DejaVuSans-30" x="63.623047"/>
       <use xlink:href="#DejaVuSans-30" x="127.246094"/>
      </g>
     </g>
    </g>
    <g id="xtick_4">
     <g id="line2d_4">
      <g>
       <use xlink:href="#m312fe81eb8" x="195.16399" y="288.430125" style="stroke: #000000; stroke-width: 0.8"/>
      </g>
     </g>
     <g id="text_4">
      <!-- 600 -->
      <g transform="translate(185.62024 303.028562) scale(0.1 -0.1)">
       <defs>
        <path id="DejaVuSans-36" d="M 2113 2584 
Q 1688 2584 1439 2293 
Q 1191 2003 1191 1497 
Q 1191 994 1439 701 
Q 1688 409 2113 409 
Q 2538 409 2786 701 
Q 3034 994 3034 1497 
Q 3034 2003 2786 2293 
Q 2538 2584 2113 2584 
z
M 3366 4563 
L 3366 3988 
Q 3128 4100 2886 4159 
Q 2644 4219 2406 4219 
Q 1781 4219 1451 3797 
Q 1122 3375 1075 2522 
Q 1259 2794 1537 2939 
Q 1816 3084 2150 3084 
Q 2853 3084 3261 2657 
Q 3669 2231 3669 1497 
Q 3669 778 3244 343 
Q 2819 -91 2113 -91 
Q 1303 -91 875 529 
Q 447 1150 447 2328 
Q 447 3434 972 4092 
Q 1497 4750 2381 4750 
Q 2619 4750 2861 4703 
Q 3103 4656 3366 4563 
z
" transform="scale(0.015625)"/>
       </defs>
       <use xlink:href="#DejaVuSans-36"/>
       <use xlink:href="#DejaVuSans-30" x="63.623047"/>
       <use xlink:href="#DejaVuSans-30" x="127.246094"/>
      </g>
     </g>
    </g>
    <g id="xtick_5">
     <g id="line2d_5">
      <g>
       <use xlink:href="#m312fe81eb8" x="238.48014" y="288.430125" style="stroke: #000000; stroke-width: 0.8"/>
      </g>
     </g>
     <g id="text_5">
      <!-- 800 -->
      <g transform="translate(228.93639 303.028562) scale(0.1 -0.1)">
       <defs>
        <path id="DejaVuSans-38" d="M 2034 2216 
Q 1584 2216 1326 1975 
Q 1069 1734 1069 1313 
Q 1069 891 1326 650 
Q 1584 409 2034 409 
Q 2484 409 2743 651 
Q 3003 894 3003 1313 
Q 3003 1734 2745 1975 
Q 2488 2216 2034 2216 
z
M 1403 2484 
Q 997 2584 770 2862 
Q 544 3141 544 3541 
Q 544 4100 942 4425 
Q 1341 4750 2034 4750 
Q 2731 4750 3128 4425 
Q 3525 4100 3525 3541 
Q 3525 3141 3298 2862 
Q 3072 2584 2669 2484 
Q 3125 2378 3379 2068 
Q 3634 1759 3634 1313 
Q 3634 634 3220 271 
Q 2806 -91 2034 -91 
Q 1263 -91 848 271 
Q 434 634 434 1313 
Q 434 1759 690 2068 
Q 947 2378 1403 2484 
z
M 1172 3481 
Q 1172 3119 1398 2916 
Q 1625 2713 2034 2713 
Q 2441 2713 2670 2916 
Q 2900 3119 2900 3481 
Q 2900 3844 2670 4047 
Q 2441 4250 2034 4250 
Q 1625 4250 1398 4047 
Q 1172 3844 1172 3481 
z
" transform="scale(0.015625)"/>
       </defs>
       <use xlink:href="#DejaVuSans-38"/>
       <use xlink:href="#DejaVuSans-30" x="63.623047"/>
       <use xlink:href="#DejaVuSans-30" x="127.246094"/>
      </g>
     </g>
    </g>
    <g id="xtick_6">
     <g id="line2d_6">
      <g>
       <use xlink:href="#m312fe81eb8" x="281.796291" y="288.430125" style="stroke: #000000; stroke-width: 0.8"/>
      </g>
     </g>
     <g id="text_6">
      <!-- 1000 -->
      <g transform="translate(269.071291 303.028562) scale(0.1 -0.1)">
       <defs>
        <path id="DejaVuSans-31" d="M 794 531 
L 1825 531 
L 1825 4091 
L 703 3866 
L 703 4441 
L 1819 4666 
L 2450 4666 
L 2450 531 
L 3481 531 
L 3481 0 
L 794 0 
L 794 531 
z
" transform="scale(0.015625)"/>
       </defs>
       <use xlink:href="#DejaVuSans-31"/>
       <use xlink:href="#DejaVuSans-30" x="63.623047"/>
       <use xlink:href="#DejaVuSans-30" x="127.246094"/>
       <use xlink:href="#DejaVuSans-30" x="190.869141"/>
      </g>
     </g>
    </g>
    <g id="xtick_7">
     <g id="line2d_7">
      <g>
       <use xlink:href="#m312fe81eb8" x="325.112441" y="288.430125" style="stroke: #000000; stroke-width: 0.8"/>
      </g>
     </g>
     <g id="text_7">
      <!-- 1200 -->
      <g transform="translate(312.387441 303.028562) scale(0.1 -0.1)">
       <use xlink:href="#DejaVuSans-31"/>
       <use xlink:href="#DejaVuSans-32" x="63.623047"/>
       <use xlink:href="#DejaVuSans-30" x="127.246094"/>
       <use xlink:href="#DejaVuSans-30" x="190.869141"/>
      </g>
     </g>
    </g>
    <g id="xtick_8">
     <g id="line2d_8">
      <g>
       <use xlink:href="#m312fe81eb8" x="368.428591" y="288.430125" style="stroke: #000000; stroke-width: 0.8"/>
      </g>
     </g>
     <g id="text_8">
      <!-- 1400 -->
      <g transform="translate(355.703591 303.028562) scale(0.1 -0.1)">
       <use xlink:href="#DejaVuSans-31"/>
       <use xlink:href="#DejaVuSans-34" x="63.623047"/>
       <use xlink:href="#DejaVuSans-30" x="127.246094"/>
       <use xlink:href="#DejaVuSans-30" x="190.869141"/>
      </g>
     </g>
    </g>
    <g id="text_9">
     <!-- Episode -->
     <g transform="translate(207.905313 316.706687) scale(0.1 -0.1)">
      <defs>
       <path id="DejaVuSans-45" d="M 628 4666 
L 3578 4666 
L 3578 4134 
L 1259 4134 
L 1259 2753 
L 3481 2753 
L 3481 2222 
L 1259 2222 
L 1259 531 
L 3634 531 
L 3634 0 
L 628 0 
L 628 4666 
z
" transform="scale(0.015625)"/>
       <path id="DejaVuSans-70" d="M 1159 525 
L 1159 -1331 
L 581 -1331 
L 581 3500 
L 1159 3500 
L 1159 2969 
Q 1341 3281 1617 3432 
Q 1894 3584 2278 3584 
Q 2916 3584 3314 3078 
Q 3713 2572 3713 1747 
Q 3713 922 3314 415 
Q 2916 -91 2278 -91 
Q 1894 -91 1617 61 
Q 1341 213 1159 525 
z
M 3116 1747 
Q 3116 2381 2855 2742 
Q 2594 3103 2138 3103 
Q 1681 3103 1420 2742 
Q 1159 2381 1159 1747 
Q 1159 1113 1420 752 
Q 1681 391 2138 391 
Q 2594 391 2855 752 
Q 3116 1113 3116 1747 
z
" transform="scale(0.015625)"/>
       <path id="DejaVuSans-69" d="M 603 3500 
L 1178 3500 
L 1178 0 
L 603 0 
L 603 3500 
z
M 603 4863 
L 1178 4863 
L 1178 4134 
L 603 4134 
L 603 4863 
z
" transform="scale(0.015625)"/>
       <path id="DejaVuSans-73" d="M 2834 3397 
L 2834 2853 
Q 2591 2978 2328 3040 
Q 2066 3103 1784 3103 
Q 1356 3103 1142 2972 
Q 928 2841 928 2578 
Q 928 2378 1081 2264 
Q 1234 2150 1697 2047 
L 1894 2003 
Q 2506 1872 2764 1633 
Q 3022 1394 3022 966 
Q 3022 478 2636 193 
Q 2250 -91 1575 -91 
Q 1294 -91 989 -36 
Q 684 19 347 128 
L 347 722 
Q 666 556 975 473 
Q 1284 391 1588 391 
Q 1994 391 2212 530 
Q 2431 669 2431 922 
Q 2431 1156 2273 1281 
Q 2116 1406 1581 1522 
L 1381 1569 
Q 847 1681 609 1914 
Q 372 2147 372 2553 
Q 372 3047 722 3315 
Q 1072 3584 1716 3584 
Q 2034 3584 2315 3537 
Q 2597 3491 2834 3397 
z
" transform="scale(0.015625)"/>
       <path id="DejaVuSans-6f" d="M 1959 3097 
Q 1497 3097 1228 2736 
Q 959 2375 959 1747 
Q 959 1119 1226 758 
Q 1494 397 1959 397 
Q 2419 397 2687 759 
Q 2956 1122 2956 1747 
Q 2956 2369 2687 2733 
Q 2419 3097 1959 3097 
z
M 1959 3584 
Q 2709 3584 3137 3096 
Q 3566 2609 3566 1747 
Q 3566 888 3137 398 
Q 2709 -91 1959 -91 
Q 1206 -91 779 398 
Q 353 888 353 1747 
Q 353 2609 779 3096 
Q 1206 3584 1959 3584 
z
" transform="scale(0.015625)"/>
       <path id="DejaVuSans-64" d="M 2906 2969 
L 2906 4863 
L 3481 4863 
L 3481 0 
L 2906 0 
L 2906 525 
Q 2725 213 2448 61 
Q 2172 -91 1784 -91 
Q 1150 -91 751 415 
Q 353 922 353 1747 
Q 353 2572 751 3078 
Q 1150 3584 1784 3584 
Q 2172 3584 2448 3432 
Q 2725 3281 2906 2969 
z
M 947 1747 
Q 947 1113 1208 752 
Q 1469 391 1925 391 
Q 2381 391 2643 752 
Q 2906 1113 2906 1747 
Q 2906 2381 2643 2742 
Q 2381 3103 1925 3103 
Q 1469 3103 1208 2742 
Q 947 2381 947 1747 
z
" transform="scale(0.015625)"/>
       <path id="DejaVuSans-65" d="M 3597 1894 
L 3597 1613 
L 953 1613 
Q 991 1019 1311 708 
Q 1631 397 2203 397 
Q 2534 397 2845 478 
Q 3156 559 3463 722 
L 3463 178 
Q 3153 47 2828 -22 
Q 2503 -91 2169 -91 
Q 1331 -91 842 396 
Q 353 884 353 1716 
Q 353 2575 817 3079 
Q 1281 3584 2069 3584 
Q 2775 3584 3186 3129 
Q 3597 2675 3597 1894 
z
M 3022 2063 
Q 3016 2534 2758 2815 
Q 2500 3097 2075 3097 
Q 1594 3097 1305 2825 
Q 1016 2553 972 2059 
L 3022 2063 
z
" transform="scale(0.015625)"/>
      </defs>
      <use xlink:href="#DejaVuSans-45"/>
      <use xlink:href="#DejaVuSans-70" x="63.183594"/>
      <use xlink:href="#DejaVuSans-69" x="126.660156"/>
      <use xlink:href="#DejaVuSans-73" x="154.443359"/>
      <use xlink:href="#DejaVuSans-6f" x="206.542969"/>
      <use xlink:href="#DejaVuSans-64" x="267.724609"/>
      <use xlink:href="#DejaVuSans-65" x="331.201172"/>
     </g>
    </g>
   </g>
   <g id="matplotlib.axis_2">
    <g id="ytick_1">
     <g id="line2d_9">
      <defs>
       <path id="mf779c9a1aa" d="M 0 0 
L -3.5 0 
" style="stroke: #000000; stroke-width: 0.8"/>
      </defs>
      <g>
       <use xlink:href="#mf779c9a1aa" x="48.982813" y="270.731058" style="stroke: #000000; stroke-width: 0.8"/>
      </g>
     </g>
     <g id="text_10">
      <!-- −80 -->
      <g transform="translate(20.878125 274.530277) scale(0.1 -0.1)">
       <defs>
        <path id="DejaVuSans-2212" d="M 678 2272 
L 4684 2272 
L 4684 1741 
L 678 1741 
L 678 2272 
z
" transform="scale(0.015625)"/>
       </defs>
       <use xlink:href="#DejaVuSans-2212"/>
       <use xlink:href="#DejaVuSans-38" x="83.789062"/>
       <use xlink:href="#DejaVuSans-30" x="147.412109"/>
      </g>
     </g>
    </g>
    <g id="ytick_2">
     <g id="line2d_10">
      <g>
       <use xlink:href="#mf779c9a1aa" x="48.982813" y="239.83868" style="stroke: #000000; stroke-width: 0.8"/>
      </g>
     </g>
     <g id="text_11">
      <!-- −75 -->
      <g transform="translate(20.878125 243.637899) scale(0.1 -0.1)">
       <defs>
        <path id="DejaVuSans-37" d="M 525 4666 
L 3525 4666 
L 3525 4397 
L 1831 0 
L 1172 0 
L 2766 4134 
L 525 4134 
L 525 4666 
z
" transform="scale(0.015625)"/>
        <path id="DejaVuSans-35" d="M 691 4666 
L 3169 4666 
L 3169 4134 
L 1269 4134 
L 1269 2991 
Q 1406 3038 1543 3061 
Q 1681 3084 1819 3084 
Q 2600 3084 3056 2656 
Q 3513 2228 3513 1497 
Q 3513 744 3044 326 
Q 2575 -91 1722 -91 
Q 1428 -91 1123 -41 
Q 819 9 494 109 
L 494 744 
Q 775 591 1075 516 
Q 1375 441 1709 441 
Q 2250 441 2565 725 
Q 2881 1009 2881 1497 
Q 2881 1984 2565 2268 
Q 2250 2553 1709 2553 
Q 1456 2553 1204 2497 
Q 953 2441 691 2322 
L 691 4666 
z
" transform="scale(0.015625)"/>
       </defs>
       <use xlink:href="#DejaVuSans-2212"/>
       <use xlink:href="#DejaVuSans-37" x="83.789062"/>
       <use xlink:href="#DejaVuSans-35" x="147.412109"/>
      </g>
     </g>
    </g>
    <g id="ytick_3">
     <g id="line2d_11">
      <g>
       <use xlink:href="#mf779c9a1aa" x="48.982813" y="208.946302" style="stroke: #000000; stroke-width: 0.8"/>
      </g>
     </g>
     <g id="text_12">
      <!-- −70 -->
      <g transform="translate(20.878125 212.745521) scale(0.1 -0.1)">
       <use xlink:href="#DejaVuSans-2212"/>
       <use xlink:href="#DejaVuSans-37" x="83.789062"/>
       <use xlink:href="#DejaVuSans-30" x="147.412109"/>
      </g>
     </g>
    </g>
    <g id="ytick_4">
     <g id="line2d_12">
      <g>
       <use xlink:href="#mf779c9a1aa" x="48.982813" y="178.053924" style="stroke: #000000; stroke-width: 0.8"/>
      </g>
     </g>
     <g id="text_13">
      <!-- −65 -->
      <g transform="translate(20.878125 181.853143) scale(0.1 -0.1)">
       <use xlink:href="#DejaVuSans-2212"/>
       <use xlink:href="#DejaVuSans-36" x="83.789062"/>
       <use xlink:href="#DejaVuSans-35" x="147.412109"/>
      </g>
     </g>
    </g>
    <g id="ytick_5">
     <g id="line2d_13">
      <g>
       <use xlink:href="#mf779c9a1aa" x="48.982813" y="147.161546" style="stroke: #000000; stroke-width: 0.8"/>
      </g>
     </g>
     <g id="text_14">
      <!-- −60 -->
      <g transform="translate(20.878125 150.960765) scale(0.1 -0.1)">
       <use xlink:href="#DejaVuSans-2212"/>
       <use xlink:href="#DejaVuSans-36" x="83.789062"/>
       <use xlink:href="#DejaVuSans-30" x="147.412109"/>
      </g>
     </g>
    </g>
    <g id="ytick_6">
     <g id="line2d_14">
      <g>
       <use xlink:href="#mf779c9a1aa" x="48.982813" y="116.269168" style="stroke: #000000; stroke-width: 0.8"/>
      </g>
     </g>
     <g id="text_15">
      <!-- −55 -->
      <g transform="translate(20.878125 120.068387) scale(0.1 -0.1)">
       <use xlink:href="#DejaVuSans-2212"/>
       <use xlink:href="#DejaVuSans-35" x="83.789062"/>
       <use xlink:href="#DejaVuSans-35" x="147.412109"/>
      </g>
     </g>
    </g>
    <g id="ytick_7">
     <g id="line2d_15">
      <g>
       <use xlink:href="#mf779c9a1aa" x="48.982813" y="85.37679" style="stroke: #000000; stroke-width: 0.8"/>
      </g>
     </g>
     <g id="text_16">
      <!-- −50 -->
      <g transform="translate(20.878125 89.176009) scale(0.1 -0.1)">
       <use xlink:href="#DejaVuSans-2212"/>
       <use xlink:href="#DejaVuSans-35" x="83.789062"/>
       <use xlink:href="#DejaVuSans-30" x="147.412109"/>
      </g>
     </g>
    </g>
    <g id="ytick_8">
     <g id="line2d_16">
      <g>
       <use xlink:href="#mf779c9a1aa" x="48.982813" y="54.484412" style="stroke: #000000; stroke-width: 0.8"/>
      </g>
     </g>
     <g id="text_17">
      <!-- −45 -->
      <g transform="translate(20.878125 58.283631) scale(0.1 -0.1)">
       <use xlink:href="#DejaVuSans-2212"/>
       <use xlink:href="#DejaVuSans-34" x="83.789062"/>
       <use xlink:href="#DejaVuSans-35" x="147.412109"/>
      </g>
     </g>
    </g>
    <g id="ytick_9">
     <g id="line2d_17">
      <g>
       <use xlink:href="#mf779c9a1aa" x="48.982813" y="23.592034" style="stroke: #000000; stroke-width: 0.8"/>
      </g>
     </g>
     <g id="text_18">
      <!-- −40 -->
      <g transform="translate(20.878125 27.391253) scale(0.1 -0.1)">
       <use xlink:href="#DejaVuSans-2212"/>
       <use xlink:href="#DejaVuSans-34" x="83.789062"/>
       <use xlink:href="#DejaVuSans-30" x="147.412109"/>
      </g>
     </g>
    </g>
    <g id="text_19">
     <!-- Reward -->
     <g transform="translate(14.798438 173.995219) rotate(-90) scale(0.1 -0.1)">
      <defs>
       <path id="DejaVuSans-52" d="M 2841 2188 
Q 3044 2119 3236 1894 
Q 3428 1669 3622 1275 
L 4263 0 
L 3584 0 
L 2988 1197 
Q 2756 1666 2539 1819 
Q 2322 1972 1947 1972 
L 1259 1972 
L 1259 0 
L 628 0 
L 628 4666 
L 2053 4666 
Q 2853 4666 3247 4331 
Q 3641 3997 3641 3322 
Q 3641 2881 3436 2590 
Q 3231 2300 2841 2188 
z
M 1259 4147 
L 1259 2491 
L 2053 2491 
Q 2509 2491 2742 2702 
Q 2975 2913 2975 3322 
Q 2975 3731 2742 3939 
Q 2509 4147 2053 4147 
L 1259 4147 
z
" transform="scale(0.015625)"/>
       <path id="DejaVuSans-77" d="M 269 3500 
L 844 3500 
L 1563 769 
L 2278 3500 
L 2956 3500 
L 3675 769 
L 4391 3500 
L 4966 3500 
L 4050 0 
L 3372 0 
L 2619 2869 
L 1863 0 
L 1184 0 
L 269 3500 
z
" transform="scale(0.015625)"/>
       <path id="DejaVuSans-61" d="M 2194 1759 
Q 1497 1759 1228 1600 
Q 959 1441 959 1056 
Q 959 750 1161 570 
Q 1363 391 1709 391 
Q 2188 391 2477 730 
Q 2766 1069 2766 1631 
L 2766 1759 
L 2194 1759 
z
M 3341 1997 
L 3341 0 
L 2766 0 
L 2766 531 
Q 2569 213 2275 61 
Q 1981 -91 1556 -91 
Q 1019 -91 701 211 
Q 384 513 384 1019 
Q 384 1609 779 1909 
Q 1175 2209 1959 2209 
L 2766 2209 
L 2766 2266 
Q 2766 2663 2505 2880 
Q 2244 3097 1772 3097 
Q 1472 3097 1187 3025 
Q 903 2953 641 2809 
L 641 3341 
Q 956 3463 1253 3523 
Q 1550 3584 1831 3584 
Q 2591 3584 2966 3190 
Q 3341 2797 3341 1997 
z
" transform="scale(0.015625)"/>
       <path id="DejaVuSans-72" d="M 2631 2963 
Q 2534 3019 2420 3045 
Q 2306 3072 2169 3072 
Q 1681 3072 1420 2755 
Q 1159 2438 1159 1844 
L 1159 0 
L 581 0 
L 581 3500 
L 1159 3500 
L 1159 2956 
Q 1341 3275 1631 3429 
Q 1922 3584 2338 3584 
Q 2397 3584 2469 3576 
Q 2541 3569 2628 3553 
L 2631 2963 
z
" transform="scale(0.015625)"/>
      </defs>
      <use xlink:href="#DejaVuSans-52"/>
      <use xlink:href="#DejaVuSans-65" x="64.982422"/>
      <use xlink:href="#DejaVuSans-77" x="126.505859"/>
      <use xlink:href="#DejaVuSans-61" x="208.292969"/>
      <use xlink:href="#DejaVuSans-72" x="269.572266"/>
      <use xlink:href="#DejaVuSans-64" x="308.935547"/>
     </g>
    </g>
   </g>
   <g id="line2d_18">
    <path d="M 65.21554 276.334125 
L 65.432121 214.575807 
L 65.865282 174.456216 
L 66.515024 165.136008 
L 66.731605 164.552372 
L 66.948186 151.073546 
L 67.164767 155.289819 
L 67.381347 157.056377 
L 67.597928 153.573416 
L 68.03109 138.666154 
L 68.24767 144.532415 
L 68.464251 154.617468 
L 68.680832 155.284678 
L 68.897413 149.276696 
L 69.113993 147.727211 
L 69.330574 151.594819 
L 69.763736 146.231434 
L 69.980316 152.42166 
L 70.196897 146.899495 
L 70.413478 161.220154 
L 70.630059 149.97667 
L 70.846639 150.174639 
L 71.06322 145.156629 
L 71.279801 144.186351 
L 71.496382 156.857977 
L 71.712962 155.914824 
L 71.929543 163.409657 
L 72.146124 160.860226 
L 72.579285 151.354859 
L 72.795866 160.577293 
L 73.012447 163.769713 
L 73.445608 150.797401 
L 73.662189 154.436264 
L 74.095351 141.803185 
L 74.311931 150.216415 
L 74.528512 145.805732 
L 74.745093 137.246488 
L 74.961674 141.156131 
L 75.178254 147.413236 
L 75.394835 142.136162 
L 75.611416 141.025597 
L 75.827997 140.512921 
L 76.044577 141.227157 
L 76.261158 133.270823 
L 76.477739 130.302903 
L 76.69432 123.837372 
L 76.9109 123.802753 
L 77.127481 121.85795 
L 77.344062 113.325535 
L 77.560643 119.296904 
L 77.777223 110.328288 
L 77.993804 113.192501 
L 78.210385 107.608389 
L 78.426966 111.521231 
L 78.643546 104.459943 
L 78.860127 101.972143 
L 79.076708 101.641034 
L 79.293289 99.932426 
L 79.509869 103.451328 
L 79.943031 101.114673 
L 80.159612 100.049809 
L 80.376192 99.763217 
L 80.592773 98.41777 
L 80.809354 99.275702 
L 81.025935 91.162765 
L 81.242515 97.516212 
L 81.459096 100.343753 
L 81.675677 91.424387 
L 81.892258 94.897277 
L 82.108838 88.355677 
L 82.325419 89.197121 
L 82.542 87.924139 
L 82.758581 85.116802 
L 82.975161 89.955862 
L 83.191742 91.800564 
L 83.408323 87.622481 
L 83.624904 88.604941 
L 83.841484 96.421066 
L 84.058065 89.527778 
L 84.274646 90.796045 
L 84.491227 93.002577 
L 84.924388 87.919545 
L 85.140969 86.471794 
L 85.35755 79.035678 
L 85.57413 83.200682 
L 85.790711 83.205881 
L 86.007292 84.015162 
L 86.440453 79.774681 
L 86.657034 79.783054 
L 86.873615 77.368326 
L 87.306776 87.72956 
L 87.523357 80.276799 
L 87.739938 80.594324 
L 87.956519 75.498601 
L 88.173099 81.939442 
L 88.38968 80.602688 
L 88.606261 81.282573 
L 88.822842 79.866269 
L 89.039422 81.390635 
L 89.256003 84.916782 
L 89.472584 73.554323 
L 89.905745 84.390993 
L 90.122326 79.865991 
L 90.338907 78.643911 
L 90.555488 84.146861 
L 90.772068 83.695886 
L 90.988649 89.211214 
L 91.20523 80.470627 
L 91.421811 80.959603 
L 91.638391 82.956456 
L 91.854972 75.906266 
L 92.071553 76.850762 
L 92.288134 78.743063 
L 92.504714 77.26223 
L 92.937876 72.97151 
L 93.154457 73.332342 
L 93.371037 72.128234 
L 93.587618 78.869282 
L 93.804199 77.616697 
L 94.02078 77.956011 
L 94.453941 71.206885 
L 94.670522 78.783531 
L 94.887103 76.54598 
L 95.103683 73.018373 
L 95.320264 73.95815 
L 95.536845 71.870886 
L 95.753426 75.365676 
L 95.970006 75.120618 
L 96.186587 76.575037 
L 96.619749 74.583613 
L 96.836329 74.276263 
L 97.05291 73.730795 
L 97.269491 76.83362 
L 97.702652 71.291886 
L 97.919233 71.465948 
L 98.135814 70.79192 
L 98.352395 70.60156 
L 98.568975 76.591554 
L 98.785556 69.120475 
L 99.002137 70.986354 
L 99.218718 66.113957 
L 99.435298 71.637603 
L 99.651879 65.683156 
L 99.86846 70.615026 
L 100.085041 58.205762 
L 100.301621 63.917678 
L 100.518202 61.926413 
L 100.734783 58.680335 
L 100.951364 67.004838 
L 101.167944 65.377701 
L 101.384525 72.21546 
L 101.601106 62.054588 
L 102.034267 72.790314 
L 102.250848 66.785787 
L 102.467429 67.844588 
L 102.68401 65.996683 
L 102.90059 62.632171 
L 103.117171 63.183119 
L 103.333752 61.843372 
L 103.550333 65.705964 
L 103.766913 61.548565 
L 103.983494 64.011928 
L 104.200075 60.977627 
L 104.416656 61.056696 
L 104.633236 68.805502 
L 105.066398 59.415653 
L 105.282979 63.638911 
L 105.499559 56.514423 
L 105.71614 63.021145 
L 105.932721 57.103946 
L 106.149302 61.33958 
L 106.365882 57.723007 
L 106.582463 64.715681 
L 106.799044 62.763269 
L 107.015625 63.055917 
L 107.232205 57.681723 
L 107.448786 58.369822 
L 107.665367 60.218424 
L 107.881948 60.20317 
L 108.098528 60.887062 
L 108.315109 58.455728 
L 108.53169 62.577053 
L 108.748271 58.454838 
L 108.964851 61.473267 
L 109.181432 62.286329 
L 109.398013 59.482604 
L 109.614594 61.984092 
L 109.831174 59.312059 
L 110.047755 64.636281 
L 110.264336 58.337824 
L 110.480917 59.361478 
L 110.697497 57.27028 
L 110.914078 62.31106 
L 111.130659 61.185533 
L 111.34724 54.658671 
L 111.996982 60.51296 
L 112.430143 54.776373 
L 112.646724 50.623905 
L 112.863305 58.870757 
L 113.079886 54.976214 
L 113.296466 55.142167 
L 113.513047 57.823993 
L 113.729628 62.293604 
L 114.162789 51.747045 
L 114.37937 56.139548 
L 114.595951 63.338713 
L 115.029112 51.633272 
L 115.245693 56.812229 
L 115.462274 56.204715 
L 116.112016 52.075615 
L 116.328597 55.619045 
L 116.545178 48.7665 
L 116.761758 53.810827 
L 116.978339 56.04934 
L 117.19492 55.371045 
L 117.411501 56.193886 
L 117.628081 53.286489 
L 117.844662 54.212025 
L 118.061243 52.057043 
L 118.277824 51.45973 
L 118.494404 50.343898 
L 118.710985 44.06286 
L 118.927566 50.97309 
L 119.144147 48.180569 
L 119.360727 52.467013 
L 119.577308 52.785308 
L 119.793889 54.081336 
L 120.01047 49.653545 
L 120.22705 48.351363 
L 120.443631 53.36218 
L 120.660212 53.389416 
L 120.876793 51.982258 
L 121.093373 52.722079 
L 121.309954 47.393413 
L 121.526535 56.558315 
L 121.743116 47.397318 
L 121.959696 50.998684 
L 122.176277 48.83303 
L 122.392858 55.139838 
L 122.609439 51.395047 
L 122.826019 51.053749 
L 123.0426 47.147433 
L 123.259181 55.60146 
L 123.692342 46.812801 
L 123.908923 49.290831 
L 124.125504 49.924183 
L 124.342085 44.329185 
L 124.558665 52.769314 
L 124.775246 54.736198 
L 125.208408 51.161453 
L 125.424988 56.096335 
L 125.641569 50.527667 
L 125.85815 51.229893 
L 126.074731 49.173153 
L 126.291311 44.069079 
L 126.507892 49.174214 
L 126.724473 47.239505 
L 126.941054 43.54576 
L 127.157635 46.604216 
L 127.374215 45.518326 
L 127.590796 48.340609 
L 127.807377 49.369513 
L 128.023958 57.054721 
L 128.240538 49.453269 
L 128.457119 51.892648 
L 128.6737 44.912266 
L 128.890281 47.975407 
L 129.106861 46.087005 
L 129.323442 41.359379 
L 129.756604 50.213821 
L 129.973184 50.062284 
L 130.189765 47.433595 
L 130.406346 46.770246 
L 130.622927 52.948104 
L 130.839507 50.702744 
L 131.056088 46.59513 
L 131.272669 45.843974 
L 131.48925 46.631658 
L 131.70583 49.1992 
L 131.922411 49.622553 
L 132.138992 49.563557 
L 132.355573 48.771609 
L 132.572153 44.744951 
L 132.788734 45.926204 
L 133.005315 38.899972 
L 133.438476 48.659787 
L 133.655057 47.028519 
L 133.871638 50.977552 
L 134.088219 45.019066 
L 134.304799 44.08866 
L 134.52138 52.215903 
L 134.737961 46.255037 
L 134.954542 45.644276 
L 135.171122 49.367509 
L 135.387703 44.407171 
L 135.604284 43.133082 
L 135.820865 49.739095 
L 136.037445 46.400196 
L 136.254026 49.305295 
L 136.470607 49.862675 
L 136.903768 47.830048 
L 137.120349 48.543914 
L 137.33693 50.630891 
L 137.553511 46.568808 
L 137.770091 47.526374 
L 137.986672 47.672504 
L 138.203253 48.188655 
L 138.419834 43.49032 
L 138.852995 48.680946 
L 139.069576 45.169716 
L 139.286157 43.850087 
L 139.502737 46.680145 
L 139.719318 43.308737 
L 139.935899 45.877185 
L 140.15248 50.354612 
L 140.36906 47.673843 
L 140.585641 49.375703 
L 140.802222 46.679295 
L 141.018803 47.993107 
L 141.235383 47.173952 
L 141.451964 44.511363 
L 141.668545 39.835519 
L 141.885126 44.991978 
L 142.101706 45.354437 
L 142.318287 43.280114 
L 142.534868 46.718543 
L 142.751449 46.659372 
L 142.968029 45.03748 
L 143.18461 45.42077 
L 143.401191 42.924222 
L 143.617772 47.272682 
L 143.834352 46.613142 
L 144.267514 44.236478 
L 144.484095 47.574103 
L 144.700675 44.187686 
L 144.917256 46.972423 
L 145.133837 45.595806 
L 145.350418 44.944377 
L 145.566998 45.332331 
L 145.783579 43.775763 
L 146.00016 44.876212 
L 146.216741 44.984729 
L 146.433321 48.8505 
L 146.649902 48.615656 
L 146.866483 43.322609 
L 147.299644 48.653766 
L 147.732806 46.413927 
L 147.949387 47.209991 
L 148.165967 44.060845 
L 148.382548 47.956976 
L 148.599129 45.268461 
L 148.81571 39.654074 
L 149.03229 40.306209 
L 149.248871 45.101055 
L 149.465452 45.409159 
L 149.898613 45.520503 
L 150.115194 52.319025 
L 150.331775 42.273002 
L 150.548356 49.238971 
L 150.764936 47.355914 
L 151.198098 40.376758 
L 151.414679 42.301829 
L 151.631259 46.131164 
L 152.064421 41.175914 
L 152.281002 44.016651 
L 152.497582 49.523296 
L 152.714163 43.786673 
L 152.930744 45.647924 
L 153.147325 44.126783 
L 153.363905 41.446214 
L 153.580486 50.157257 
L 153.797067 46.629723 
L 154.013648 40.832736 
L 154.230228 44.936374 
L 154.446809 44.867667 
L 154.879971 48.671832 
L 155.096551 43.171932 
L 155.313132 42.924586 
L 155.529713 44.263826 
L 155.746294 47.027813 
L 155.962874 47.337866 
L 156.179455 43.43933 
L 156.396036 49.358359 
L 156.612617 41.416448 
L 156.829197 50.949158 
L 157.045778 41.815522 
L 157.47894 48.721047 
L 157.69552 40.702722 
L 157.912101 42.660147 
L 158.128682 42.884483 
L 158.345263 47.706973 
L 158.561843 47.90162 
L 158.778424 43.870135 
L 159.211586 44.801829 
L 159.644747 41.815501 
L 159.861328 39.046786 
L 160.077909 43.388561 
L 160.294489 44.879077 
L 160.51107 44.90813 
L 160.727651 47.281087 
L 160.944232 40.97577 
L 161.377393 45.175477 
L 161.593974 42.288367 
L 161.810555 47.664943 
L 162.027135 46.904002 
L 162.243716 41.758954 
L 162.676878 44.967384 
L 162.893458 50.00199 
L 163.110039 46.323701 
L 163.32662 47.245551 
L 163.543201 45.671025 
L 163.759781 45.056656 
L 163.976362 40.072243 
L 164.192943 42.070706 
L 164.409524 40.979487 
L 164.626104 47.642786 
L 164.842685 43.729837 
L 165.275847 49.322601 
L 165.925589 38.998166 
L 166.14217 49.729268 
L 166.35875 44.804646 
L 166.575331 47.40982 
L 166.791912 48.068365 
L 167.008493 40.444243 
L 167.225073 53.438695 
L 167.441654 41.071044 
L 167.658235 41.323108 
L 167.874816 45.673657 
L 168.091396 46.31985 
L 168.307977 40.998671 
L 168.741139 45.705463 
L 168.957719 42.542375 
L 169.1743 49.198158 
L 169.390881 44.589243 
L 169.607462 42.84786 
L 169.824042 50.479314 
L 170.257204 41.076724 
L 170.473785 45.03005 
L 170.690365 44.134994 
L 171.340108 46.507567 
L 171.556688 41.785703 
L 171.773269 41.881577 
L 171.98985 47.101393 
L 172.206431 46.65963 
L 172.423011 42.820227 
L 172.856173 47.938453 
L 173.072754 42.169677 
L 173.289334 44.862247 
L 173.505915 40.886668 
L 173.939077 48.473515 
L 174.155657 41.869055 
L 174.588819 45.462793 
L 174.8054 45.003745 
L 175.02198 40.190347 
L 175.238561 46.452877 
L 175.455142 47.285098 
L 175.671723 45.98777 
L 175.888303 45.422719 
L 176.104884 47.204554 
L 176.321465 39.398763 
L 176.538046 45.794926 
L 176.971207 41.658889 
L 177.187788 44.782844 
L 177.404369 41.366146 
L 177.620949 44.641407 
L 177.83753 44.525806 
L 178.054111 44.135001 
L 178.270692 41.448999 
L 178.487272 43.132315 
L 178.703853 46.736315 
L 178.920434 42.324329 
L 179.137015 46.453102 
L 179.353595 44.254423 
L 179.786757 46.863046 
L 180.003338 42.974592 
L 180.219918 42.71186 
L 180.436499 38.55008 
L 180.65308 47.426515 
L 180.869661 39.341715 
L 181.086241 45.475608 
L 181.519403 41.727787 
L 181.735984 40.700413 
L 181.952564 43.40199 
L 182.169145 43.936418 
L 182.385726 49.206634 
L 182.602307 47.456789 
L 182.818887 49.834643 
L 183.035468 48.157374 
L 183.252049 39.099366 
L 183.46863 42.17003 
L 183.68521 48.124567 
L 183.901791 41.268074 
L 184.334953 45.523453 
L 184.768114 41.140636 
L 184.984695 45.356489 
L 185.201276 39.389593 
L 185.417856 37.532485 
L 185.634437 45.222322 
L 185.851018 41.813549 
L 186.067599 44.89752 
L 186.284179 42.214255 
L 186.50076 43.71808 
L 186.717341 46.593622 
L 186.933922 45.616783 
L 187.367083 47.422196 
L 187.583664 42.810832 
L 187.800245 43.216431 
L 188.016825 44.885652 
L 188.233406 47.579861 
L 188.449987 43.835084 
L 188.666568 46.102635 
L 188.883148 45.308198 
L 189.099729 36.711898 
L 189.31631 42.567028 
L 189.532891 39.659495 
L 189.966052 47.973271 
L 190.182633 43.437266 
L 190.399214 42.197106 
L 190.615794 44.336827 
L 190.832375 37.979107 
L 191.048956 45.140875 
L 191.265537 44.136604 
L 191.482117 45.739897 
L 191.698698 41.807544 
L 191.915279 47.510291 
L 192.13186 48.793457 
L 192.34844 43.608917 
L 192.565021 48.435806 
L 192.781602 46.566287 
L 192.998183 50.565768 
L 193.214763 47.66241 
L 193.431344 51.903565 
L 193.864506 42.415212 
L 194.081087 43.070033 
L 194.297667 47.865752 
L 194.730829 40.749677 
L 194.94741 41.117694 
L 195.16399 38.978599 
L 195.380571 45.327803 
L 195.597152 46.396785 
L 195.813733 50.134669 
L 196.030313 42.838033 
L 196.246894 41.480708 
L 196.463475 45.411663 
L 196.680056 43.110921 
L 196.896636 45.89025 
L 197.329798 40.854556 
L 197.546379 42.453142 
L 197.762959 42.658706 
L 197.97954 47.57373 
L 198.196121 43.63106 
L 198.412702 49.399594 
L 198.629282 42.944003 
L 198.845863 44.779623 
L 199.062444 41.507801 
L 199.279025 44.559 
L 199.495605 43.345988 
L 199.712186 43.138364 
L 199.928767 41.202157 
L 200.145348 40.726401 
L 200.361928 45.891457 
L 200.578509 37.057501 
L 200.79509 41.427958 
L 201.011671 42.382799 
L 201.228251 45.173962 
L 201.444832 41.197653 
L 201.661413 46.226883 
L 201.877994 37.160028 
L 202.094574 43.729842 
L 202.311155 40.680473 
L 202.527736 44.467789 
L 202.960897 41.758498 
L 203.177478 48.141106 
L 203.61064 45.800691 
L 203.82722 48.625887 
L 204.043801 49.863118 
L 204.476963 42.311276 
L 204.693543 62.111954 
L 204.910124 41.080503 
L 205.126705 47.403619 
L 205.343286 43.366199 
L 205.559866 44.724123 
L 205.776447 40.967431 
L 206.209609 47.972394 
L 206.426189 41.688711 
L 206.64277 42.503221 
L 206.859351 42.450973 
L 207.075932 49.464684 
L 207.292512 43.07195 
L 207.509093 47.393965 
L 207.725674 42.053312 
L 207.942255 46.037123 
L 208.158835 45.386497 
L 208.375416 39.504215 
L 208.591997 43.763119 
L 208.808578 43.962564 
L 209.025158 45.49946 
L 209.45832 42.110269 
L 209.674901 47.535546 
L 209.891481 46.07489 
L 210.108062 47.16886 
L 210.324643 45.161396 
L 210.541224 61.839194 
L 210.757804 43.684892 
L 211.190966 48.35415 
L 211.407547 44.864741 
L 211.624127 45.792106 
L 211.840708 43.880186 
L 212.057289 39.760186 
L 212.27387 46.662851 
L 212.49045 39.898254 
L 212.707031 41.269517 
L 212.923612 44.470826 
L 213.140193 44.133088 
L 213.356773 40.551028 
L 213.573354 42.076778 
L 213.789935 48.374149 
L 214.006516 41.642911 
L 214.223096 48.385256 
L 214.439677 45.034899 
L 214.656258 45.140665 
L 214.872839 42.024478 
L 215.089419 43.111971 
L 215.306 40.261528 
L 215.522581 44.610652 
L 215.739162 44.809423 
L 215.955742 45.842939 
L 216.172323 37.068189 
L 216.388904 50.171911 
L 216.605485 39.579545 
L 216.822065 45.005578 
L 217.038646 40.35561 
L 217.255227 43.735943 
L 217.688388 42.268461 
L 217.904969 43.100829 
L 218.12155 43.26401 
L 218.338131 41.636726 
L 218.554711 46.006867 
L 218.771292 43.587907 
L 218.987873 46.499079 
L 219.204454 40.954954 
L 219.421034 41.191831 
L 219.637615 44.25074 
L 219.854196 43.025067 
L 220.070777 47.917186 
L 220.503938 42.27011 
L 220.720519 43.628431 
L 220.9371 43.614986 
L 221.15368 48.29736 
L 221.370261 44.832043 
L 221.586842 43.666793 
L 221.803423 45.616854 
L 222.020003 44.165758 
L 222.236584 44.247902 
L 222.453165 40.44397 
L 222.886326 45.011713 
L 223.102907 41.364503 
L 223.319488 40.232303 
L 223.536069 43.840065 
L 223.752649 42.281196 
L 223.96923 43.973779 
L 224.185811 40.445261 
L 224.402392 45.249836 
L 224.618972 38.937868 
L 224.835553 45.661873 
L 225.052134 45.51165 
L 225.268715 47.754475 
L 225.485295 46.77577 
L 225.701876 48.101777 
L 225.918457 41.270278 
L 226.135038 41.919357 
L 226.351618 45.158154 
L 226.568199 43.989983 
L 227.001361 40.832601 
L 227.217941 41.901378 
L 227.434522 46.38225 
L 227.651103 39.534964 
L 227.867684 43.053786 
L 228.084264 42.959052 
L 228.300845 47.220964 
L 228.517426 42.641729 
L 228.734007 43.114647 
L 228.950587 42.480201 
L 229.167168 43.741646 
L 229.60033 44.330225 
L 229.81691 44.443084 
L 230.033491 41.047146 
L 230.250072 42.562778 
L 230.466653 39.932973 
L 230.683233 41.368951 
L 230.899814 46.73562 
L 231.116395 45.521623 
L 231.332976 38.341106 
L 231.549556 45.068789 
L 231.766137 44.047755 
L 231.982718 46.656779 
L 232.199299 42.085221 
L 232.415879 44.324219 
L 232.63246 42.991327 
L 232.849041 42.524629 
L 233.282202 44.817985 
L 233.498783 44.935795 
L 233.715364 46.992711 
L 233.931945 43.841008 
L 234.365106 50.797476 
L 234.581687 43.372895 
L 234.798268 48.681065 
L 235.014848 46.78332 
L 235.231429 42.001449 
L 235.44801 42.037763 
L 235.664591 47.424947 
L 235.881171 44.268681 
L 236.097752 43.432941 
L 236.314333 48.287059 
L 236.747494 43.87387 
L 237.180656 44.755061 
L 237.397237 40.819003 
L 237.613817 41.51256 
L 237.830398 41.29112 
L 238.046979 49.200908 
L 238.26356 41.106673 
L 238.48014 43.394061 
L 238.696721 39.347719 
L 238.913302 45.559152 
L 239.129883 45.317824 
L 239.346463 41.051515 
L 239.563044 51.145024 
L 239.779625 39.696011 
L 239.996206 44.758113 
L 240.212786 37.543942 
L 240.429367 41.52438 
L 240.645948 42.625824 
L 240.862529 38.38676 
L 241.079109 47.220268 
L 241.29569 39.761079 
L 241.512271 42.173408 
L 241.728852 39.574634 
L 241.945432 42.804231 
L 242.162013 41.88853 
L 242.378594 44.535236 
L 242.811755 41.254161 
L 243.028336 44.40999 
L 243.244917 42.696514 
L 243.461498 47.803265 
L 243.678078 41.812291 
L 243.894659 45.492433 
L 244.11124 43.002657 
L 244.327821 45.42314 
L 244.544401 44.889039 
L 244.760982 42.522415 
L 244.977563 47.027709 
L 245.194144 46.682793 
L 245.410724 54.82535 
L 245.627305 40.57332 
L 245.843886 43.953269 
L 246.060467 44.319783 
L 246.277047 41.287578 
L 246.493628 54.585622 
L 246.92679 36.578762 
L 247.14337 37.97661 
L 247.359951 43.082877 
L 247.576532 42.115243 
L 247.793113 42.80429 
L 248.226274 37.481908 
L 248.659436 41.194523 
L 248.876016 47.665411 
L 249.092597 38.636879 
L 249.309178 44.486152 
L 249.525759 46.044347 
L 249.742339 44.548627 
L 249.95892 44.759307 
L 250.175501 41.411726 
L 250.608662 44.565838 
L 250.825243 44.167489 
L 251.041824 45.738061 
L 251.258405 42.797106 
L 251.474985 41.54644 
L 251.691566 41.266684 
L 251.908147 36.686584 
L 252.557889 49.107595 
L 252.77447 43.129115 
L 252.991051 51.831962 
L 253.424212 41.047359 
L 253.640793 42.820909 
L 253.857374 43.483908 
L 254.073954 39.384627 
L 254.290535 44.893815 
L 254.507116 42.203517 
L 254.723697 44.258363 
L 254.940277 41.715092 
L 255.156858 41.582584 
L 255.373439 45.811049 
L 255.59002 41.909817 
L 255.8066 53.295049 
L 256.023181 41.523289 
L 256.239762 38.897124 
L 256.456343 40.583301 
L 256.672923 40.17644 
L 256.889504 46.44372 
L 257.106085 44.636936 
L 257.322666 47.143596 
L 257.539246 43.448506 
L 257.755827 44.855833 
L 257.972408 41.89398 
L 258.188989 41.90237 
L 258.405569 41.580932 
L 258.62215 39.789382 
L 258.838731 42.843887 
L 259.055312 42.85662 
L 259.271892 43.501661 
L 259.488473 42.905352 
L 259.705054 48.286627 
L 259.921635 41.539846 
L 260.138215 44.225415 
L 260.354796 43.570729 
L 260.787958 47.358341 
L 261.004538 45.222677 
L 261.221119 38.691545 
L 261.654281 48.107372 
L 261.870862 45.756571 
L 262.087442 41.453236 
L 262.520604 45.442604 
L 262.737185 41.369533 
L 263.170346 47.658575 
L 263.386927 46.095266 
L 263.603508 48.806373 
L 263.820088 39.254756 
L 264.036669 45.077613 
L 264.25325 45.235845 
L 264.469831 41.914171 
L 264.686411 40.404667 
L 264.902992 42.497686 
L 265.119573 46.085301 
L 265.336154 41.810295 
L 265.552734 44.302137 
L 265.769315 43.680964 
L 265.985896 46.04232 
L 266.202477 40.849886 
L 266.419057 41.42516 
L 266.635638 39.754176 
L 266.852219 41.814645 
L 267.0688 36.613015 
L 267.28538 37.79682 
L 267.501961 44.774774 
L 267.935123 39.667664 
L 268.151703 47.568038 
L 268.368284 42.615943 
L 268.584865 48.543658 
L 269.018026 40.309868 
L 269.234607 39.451977 
L 269.451188 47.647856 
L 269.667769 47.234552 
L 269.884349 41.277827 
L 270.10093 46.279503 
L 270.317511 37.534059 
L 270.534092 44.538944 
L 270.750672 43.041733 
L 271.183834 42.557921 
L 271.400415 47.578013 
L 272.050157 37.936091 
L 272.266738 41.706555 
L 272.483318 51.699611 
L 272.91648 39.639388 
L 273.133061 42.32422 
L 273.349641 34.414125 
L 273.782803 45.654282 
L 273.999384 46.351142 
L 274.215964 38.835393 
L 274.432545 40.545095 
L 274.649126 43.404142 
L 274.865707 40.165568 
L 275.082287 44.517818 
L 275.298868 43.045316 
L 275.515449 42.56197 
L 275.73203 43.329845 
L 275.94861 39.886685 
L 276.165191 47.204272 
L 276.381772 44.069555 
L 276.598353 43.916638 
L 276.814933 38.250891 
L 277.031514 42.156163 
L 277.464676 37.634661 
L 277.681256 38.631005 
L 278.114418 47.266198 
L 278.330999 41.817172 
L 278.547579 41.150515 
L 278.76416 38.786653 
L 278.980741 45.427324 
L 279.197322 43.593501 
L 279.413902 43.183071 
L 279.630483 65.182244 
L 279.847064 47.686116 
L 280.063645 54.770717 
L 280.280225 43.161601 
L 280.496806 53.452964 
L 280.713387 41.968871 
L 280.929968 38.423602 
L 281.146548 48.407767 
L 281.363129 41.053401 
L 281.796291 38.954075 
L 282.012871 46.586316 
L 282.229452 40.094143 
L 282.446033 43.864369 
L 282.662614 41.539299 
L 282.879194 47.525103 
L 283.095775 43.420012 
L 283.312356 62.565909 
L 283.528937 44.222137 
L 283.745517 48.988352 
L 284.178679 42.569453 
L 284.61184 49.943726 
L 285.045002 40.656368 
L 285.261583 39.512686 
L 285.478163 44.023773 
L 285.694744 42.261832 
L 285.911325 42.16037 
L 286.127906 46.869577 
L 286.344486 45.333693 
L 286.561067 39.195824 
L 286.777648 43.332357 
L 286.994229 40.576653 
L 287.210809 36.383495 
L 287.42739 39.900693 
L 288.077132 43.526083 
L 288.510294 39.094079 
L 288.726875 45.273886 
L 288.943455 39.805031 
L 289.376617 45.380709 
L 289.593198 45.76332 
L 289.809778 44.964511 
L 290.026359 41.516558 
L 290.24294 40.332424 
L 290.459521 40.289001 
L 290.676101 43.904328 
L 290.892682 40.930687 
L 291.109263 44.251507 
L 291.325844 44.544105 
L 291.542424 42.769254 
L 291.759005 43.299713 
L 291.975586 41.056119 
L 292.192167 44.436091 
L 292.408747 41.288763 
L 292.625328 40.059007 
L 292.841909 46.258119 
L 293.27507 43.470331 
L 293.491651 47.140702 
L 293.708232 41.540133 
L 293.924813 45.546855 
L 294.141393 46.575524 
L 294.357974 40.188037 
L 294.574555 43.907454 
L 294.791136 40.169744 
L 295.007716 46.247779 
L 295.224297 43.262262 
L 295.440878 50.820641 
L 295.657459 42.476509 
L 295.874039 46.186658 
L 296.09062 43.613229 
L 296.307201 42.968094 
L 296.523782 40.176578 
L 296.740362 44.474962 
L 296.956943 36.578296 
L 297.173524 41.797944 
L 297.390105 38.445452 
L 297.606685 49.010595 
L 298.039847 39.099346 
L 298.473008 44.556488 
L 298.689589 40.999896 
L 298.90617 40.945566 
L 299.122751 45.919437 
L 299.339331 42.755134 
L 299.555912 43.032379 
L 299.772493 42.719081 
L 299.989074 47.178542 
L 300.205654 44.891823 
L 300.422235 45.896803 
L 300.855397 44.470978 
L 301.071977 41.210578 
L 301.288558 41.206488 
L 301.505139 44.078765 
L 301.72172 52.78964 
L 301.9383 42.605719 
L 302.154881 43.75575 
L 302.371462 44.11632 
L 302.588043 39.290497 
L 302.804623 38.464705 
L 303.021204 45.186433 
L 303.237785 39.43849 
L 303.454366 42.613247 
L 303.670946 40.63344 
L 303.887527 45.211518 
L 304.104108 41.619451 
L 304.320689 40.670056 
L 304.537269 43.326522 
L 304.75385 40.786607 
L 304.970431 43.419674 
L 305.187012 42.20714 
L 305.403592 46.597085 
L 305.836754 44.869089 
L 306.053335 80.501418 
L 306.269915 44.222182 
L 306.486496 38.339623 
L 306.919658 46.388537 
L 307.136238 42.72584 
L 307.352819 43.331669 
L 307.5694 42.812849 
L 307.785981 47.629428 
L 308.002561 41.402414 
L 308.219142 41.210607 
L 308.435723 39.058893 
L 308.652304 40.846582 
L 308.868884 45.490022 
L 309.085465 70.222926 
L 309.302046 40.20481 
L 309.518627 38.320505 
L 309.735207 38.119507 
L 309.951788 37.465361 
L 310.168369 37.778244 
L 310.38495 46.609169 
L 310.60153 42.829618 
L 311.034692 45.509996 
L 311.251273 48.740511 
L 311.467853 41.595882 
L 311.684434 42.444174 
L 311.901015 40.244593 
L 312.117596 44.020531 
L 312.767338 40.630204 
L 312.983919 39.771835 
L 313.200499 39.389032 
L 313.41708 45.028815 
L 313.633661 39.052949 
L 313.850242 41.904935 
L 314.066822 38.610013 
L 314.283403 40.958239 
L 314.499984 44.739556 
L 314.716565 45.153067 
L 314.933145 43.83635 
L 315.149726 37.691319 
L 315.366307 42.514976 
L 315.582888 43.208718 
L 315.799468 41.984182 
L 316.016049 43.965519 
L 316.449211 38.162556 
L 316.665791 43.300721 
L 316.882372 43.670767 
L 317.315534 46.746878 
L 317.748695 39.869427 
L 317.965276 47.750557 
L 318.181857 42.787266 
L 318.398437 45.669535 
L 318.615018 41.690386 
L 318.831599 42.034629 
L 319.04818 39.016783 
L 319.481341 41.201195 
L 319.697922 41.11684 
L 319.914503 43.604739 
L 320.131083 40.336592 
L 320.347664 41.485916 
L 320.564245 46.78707 
L 320.780826 46.955487 
L 320.997406 45.150293 
L 321.213987 39.768308 
L 321.430568 43.642504 
L 321.647149 43.857529 
L 321.863729 45.512132 
L 322.08031 41.890375 
L 322.296891 45.305221 
L 322.513472 39.66876 
L 322.730052 41.665766 
L 322.946633 40.440716 
L 323.163214 40.78803 
L 323.379795 39.674936 
L 323.596375 48.325588 
L 323.812956 47.456496 
L 324.246118 38.39812 
L 324.679279 49.673755 
L 325.112441 38.794926 
L 325.329021 40.517931 
L 325.545602 46.802755 
L 325.762183 42.401526 
L 325.978764 47.163583 
L 326.195344 37.6179 
L 326.411925 43.556994 
L 326.628506 40.988824 
L 326.845087 54.778567 
L 327.278248 42.713581 
L 327.494829 39.211695 
L 327.71141 41.360994 
L 327.92799 41.603639 
L 328.144571 36.060352 
L 328.361152 47.660758 
L 328.577733 42.751646 
L 328.794314 43.389257 
L 329.010894 42.442481 
L 329.227475 38.419252 
L 329.444056 43.392571 
L 329.660637 57.487661 
L 329.877217 43.815021 
L 330.093798 46.169544 
L 330.52696 38.401983 
L 330.74354 41.731326 
L 330.960121 41.949299 
L 331.176702 48.512885 
L 331.393283 37.361538 
L 332.043025 48.207004 
L 332.259606 41.096852 
L 332.476186 45.396926 
L 332.692767 40.340259 
L 332.909348 44.301579 
L 333.125929 46.061569 
L 333.342509 40.349002 
L 333.55909 47.460917 
L 333.992252 41.111801 
L 334.208832 46.426361 
L 334.425413 40.48966 
L 334.641994 39.200341 
L 334.858575 41.665484 
L 335.075155 41.80714 
L 335.291736 41.717618 
L 335.724898 43.515314 
L 335.941478 39.629473 
L 336.158059 43.037309 
L 336.37464 42.720865 
L 336.591221 38.016354 
L 336.807801 43.320594 
L 337.240963 41.170981 
L 337.457544 41.921576 
L 337.674124 44.99687 
L 337.890705 37.645759 
L 338.107286 76.08266 
L 338.323867 41.992998 
L 338.540447 43.305317 
L 338.757028 38.999193 
L 338.973609 42.470693 
L 339.19019 39.767059 
L 339.40677 49.99095 
L 339.623351 36.620022 
L 340.056513 43.132357 
L 340.273093 44.301289 
L 340.489674 38.842833 
L 341.139416 46.970328 
L 341.355997 47.618478 
L 341.572578 42.486209 
L 341.789159 45.24371 
L 342.005739 41.722293 
L 342.22232 43.308017 
L 342.438901 47.37075 
L 342.655482 44.381252 
L 342.872062 47.08413 
L 343.088643 38.326096 
L 343.305224 37.670056 
L 343.521805 57.326879 
L 343.954966 35.649827 
L 344.171547 41.789943 
L 344.388128 39.658481 
L 344.604708 44.944264 
L 344.821289 42.054675 
L 345.03787 41.476944 
L 345.254451 39.343767 
L 345.904193 44.875341 
L 346.120774 41.249212 
L 346.337354 44.074872 
L 346.553935 50.330984 
L 346.770516 40.931617 
L 346.987097 44.547817 
L 347.203677 43.57155 
L 347.636839 48.484698 
L 347.85342 42.455832 
L 348.286581 43.319359 
L 348.503162 42.26653 
L 348.719743 42.089019 
L 348.936323 48.082907 
L 349.152904 42.847787 
L 349.369485 45.776364 
L 349.586066 42.85295 
L 350.019227 47.885562 
L 350.235808 41.239766 
L 350.452389 42.261127 
L 350.668969 45.775663 
L 350.88555 43.961866 
L 351.102131 49.251087 
L 351.535292 40.734183 
L 351.751873 46.684391 
L 351.968454 44.487857 
L 352.185035 54.303903 
L 352.401615 36.396274 
L 352.618196 40.395258 
L 352.834777 40.678122 
L 353.051358 44.700085 
L 353.267938 41.673655 
L 353.484519 40.428511 
L 353.7011 45.334948 
L 353.917681 39.100752 
L 354.134261 41.551692 
L 354.350842 42.666987 
L 354.567423 38.629861 
L 354.784004 43.116622 
L 355.000584 40.409402 
L 355.433746 44.495251 
L 355.866907 38.846673 
L 356.083488 40.377696 
L 356.300069 40.878004 
L 356.51665 41.796869 
L 356.73323 46.299783 
L 357.166392 39.248867 
L 357.382973 42.176872 
L 357.599553 40.440679 
L 357.816134 64.826662 
L 358.032715 43.662089 
L 358.249296 37.256779 
L 358.465876 43.978343 
L 358.682457 40.855039 
L 358.899038 42.135061 
L 359.115619 40.924569 
L 359.332199 46.399608 
L 359.54878 47.833117 
L 359.765361 43.131857 
L 359.981942 40.853284 
L 360.198522 43.443682 
L 360.415103 38.995678 
L 360.631684 46.394453 
L 360.848265 39.662915 
L 361.064845 44.871505 
L 361.281426 42.780976 
L 361.498007 54.954389 
L 361.714588 40.929221 
L 361.931168 44.501212 
L 362.147749 44.369876 
L 362.36433 43.742119 
L 362.580911 46.295831 
L 362.797491 41.615693 
L 363.014072 45.202755 
L 363.230653 42.596356 
L 363.447234 41.647464 
L 363.663814 38.372609 
L 363.880395 40.640993 
L 364.096976 45.090196 
L 364.313557 44.228403 
L 364.530137 45.592527 
L 364.963299 38.460823 
L 365.17988 45.727485 
L 365.39646 40.968805 
L 365.613041 41.431143 
L 365.829622 44.79825 
L 366.046203 45.167169 
L 366.479364 39.658858 
L 366.695945 45.929573 
L 366.912526 38.84922 
L 367.129106 44.004542 
L 367.345687 38.471368 
L 367.778849 46.14479 
L 367.995429 42.885592 
L 368.21201 58.181162 
L 368.428591 46.250627 
L 368.645172 41.406637 
L 368.861752 41.465159 
L 369.078333 40.911595 
L 369.294914 39.357687 
L 369.511495 46.183121 
L 369.728075 42.224749 
L 369.944656 41.310388 
L 370.161237 42.80781 
L 370.377818 47.115828 
L 370.594398 47.183205 
L 370.810979 44.070693 
L 371.02756 46.184978 
L 371.244141 61.558886 
L 371.460721 43.8608 
L 371.677302 39.648842 
L 371.893883 44.361462 
L 372.110464 43.176611 
L 372.327044 60.504228 
L 372.543625 41.7974 
L 372.760206 42.216959 
L 372.976787 43.355466 
L 373.409948 43.284747 
L 373.626529 40.19138 
L 373.84311 42.660808 
L 374.05969 43.412335 
L 374.276271 42.263933 
L 374.492852 45.963854 
L 374.709433 44.542609 
L 374.926013 46.114403 
L 375.142594 44.404491 
L 375.359175 40.470426 
L 375.575756 61.91611 
L 375.792336 55.453179 
L 376.008917 45.482476 
L 376.225498 41.029824 
L 376.442079 43.552695 
L 376.658659 41.538058 
L 376.87524 71.159746 
L 377.091821 42.822621 
L 377.308402 35.814821 
L 377.524982 39.287067 
L 377.741563 44.638311 
L 378.391305 42.332999 
L 378.607886 39.254801 
L 378.824467 40.164974 
L 379.041048 42.102327 
L 379.257628 42.590165 
L 379.474209 41.846469 
L 379.69079 67.077016 
L 379.907371 45.458408 
L 380.123951 43.139917 
L 380.557113 40.863089 
L 380.773694 43.591408 
L 380.990274 44.890961 
L 381.206855 42.10316 
L 381.423436 42.945865 
L 381.640017 40.802955 
L 381.856597 46.113504 
L 382.073178 39.773704 
L 382.289759 42.250246 
L 382.50634 39.189376 
L 382.72292 41.563414 
L 382.939501 45.708844 
L 383.156082 40.627651 
L 383.372663 41.430057 
L 383.589243 45.82745 
L 383.805824 38.959381 
L 384.022405 51.952466 
L 384.238986 44.174604 
L 384.455566 42.072709 
L 384.888728 43.909748 
L 385.105309 46.150149 
L 385.321889 51.451648 
L 385.53847 43.783427 
L 385.755051 42.155556 
L 385.971632 48.854269 
L 386.188212 45.61611 
L 386.404793 44.965514 
L 386.621374 41.170153 
L 386.837955 48.83019 
L 387.054535 50.062293 
L 387.271116 41.688116 
L 387.487697 45.490835 
L 387.704278 42.993556 
L 387.920858 45.149219 
L 388.137439 41.826898 
L 388.35402 48.429549 
L 388.570601 42.363588 
L 388.787181 42.332293 
L 389.003762 45.294842 
L 389.220343 42.030091 
L 389.436924 53.221946 
L 389.653504 41.050966 
L 389.870085 41.314073 
L 389.870085 41.314073 
" clip-path="url(#p927d87b84d)" style="fill: none; stroke: #1f77b4; stroke-width: 1.5; stroke-linecap: square"/>
   </g>
   <g id="patch_3">
    <path d="M 48.982813 288.430125 
L 48.982813 22.318125 
" style="fill: none; stroke: #000000; stroke-width: 0.8; stroke-linejoin: miter; stroke-linecap: square"/>
   </g>
   <g id="patch_4">
    <path d="M 406.102813 288.430125 
L 406.102813 22.318125 
" style="fill: none; stroke: #000000; stroke-width: 0.8; stroke-linejoin: miter; stroke-linecap: square"/>
   </g>
   <g id="patch_5">
    <path d="M 48.982813 288.430125 
L 406.102813 288.430125 
" style="fill: none; stroke: #000000; stroke-width: 0.8; stroke-linejoin: miter; stroke-linecap: square"/>
   </g>
   <g id="patch_6">
    <path d="M 48.982813 22.318125 
L 406.102813 22.318125 
" style="fill: none; stroke: #000000; stroke-width: 0.8; stroke-linejoin: miter; stroke-linecap: square"/>
   </g>
   <g id="text_20">
    <!-- Average reward (negative waiting time) per step -->
    <g transform="translate(81.377188 16.318125) scale(0.12 -0.12)">
     <defs>
      <path id="DejaVuSans-41" d="M 2188 4044 
L 1331 1722 
L 3047 1722 
L 2188 4044 
z
M 1831 4666 
L 2547 4666 
L 4325 0 
L 3669 0 
L 3244 1197 
L 1141 1197 
L 716 0 
L 50 0 
L 1831 4666 
z
" transform="scale(0.015625)"/>
      <path id="DejaVuSans-76" d="M 191 3500 
L 800 3500 
L 1894 563 
L 2988 3500 
L 3597 3500 
L 2284 0 
L 1503 0 
L 191 3500 
z
" transform="scale(0.015625)"/>
      <path id="DejaVuSans-67" d="M 2906 1791 
Q 2906 2416 2648 2759 
Q 2391 3103 1925 3103 
Q 1463 3103 1205 2759 
Q 947 2416 947 1791 
Q 947 1169 1205 825 
Q 1463 481 1925 481 
Q 2391 481 2648 825 
Q 2906 1169 2906 1791 
z
M 3481 434 
Q 3481 -459 3084 -895 
Q 2688 -1331 1869 -1331 
Q 1566 -1331 1297 -1286 
Q 1028 -1241 775 -1147 
L 775 -588 
Q 1028 -725 1275 -790 
Q 1522 -856 1778 -856 
Q 2344 -856 2625 -561 
Q 2906 -266 2906 331 
L 2906 616 
Q 2728 306 2450 153 
Q 2172 0 1784 0 
Q 1141 0 747 490 
Q 353 981 353 1791 
Q 353 2603 747 3093 
Q 1141 3584 1784 3584 
Q 2172 3584 2450 3431 
Q 2728 3278 2906 2969 
L 2906 3500 
L 3481 3500 
L 3481 434 
z
" transform="scale(0.015625)"/>
      <path id="DejaVuSans-20" transform="scale(0.015625)"/>
      <path id="DejaVuSans-28" d="M 1984 4856 
Q 1566 4138 1362 3434 
Q 1159 2731 1159 2009 
Q 1159 1288 1364 580 
Q 1569 -128 1984 -844 
L 1484 -844 
Q 1016 -109 783 600 
Q 550 1309 550 2009 
Q 550 2706 781 3412 
Q 1013 4119 1484 4856 
L 1984 4856 
z
" transform="scale(0.015625)"/>
      <path id="DejaVuSans-6e" d="M 3513 2113 
L 3513 0 
L 2938 0 
L 2938 2094 
Q 2938 2591 2744 2837 
Q 2550 3084 2163 3084 
Q 1697 3084 1428 2787 
Q 1159 2491 1159 1978 
L 1159 0 
L 581 0 
L 581 3500 
L 1159 3500 
L 1159 2956 
Q 1366 3272 1645 3428 
Q 1925 3584 2291 3584 
Q 2894 3584 3203 3211 
Q 3513 2838 3513 2113 
z
" transform="scale(0.015625)"/>
      <path id="DejaVuSans-74" d="M 1172 4494 
L 1172 3500 
L 2356 3500 
L 2356 3053 
L 1172 3053 
L 1172 1153 
Q 1172 725 1289 603 
Q 1406 481 1766 481 
L 2356 481 
L 2356 0 
L 1766 0 
Q 1100 0 847 248 
Q 594 497 594 1153 
L 594 3053 
L 172 3053 
L 172 3500 
L 594 3500 
L 594 4494 
L 1172 4494 
z
" transform="scale(0.015625)"/>
      <path id="DejaVuSans-6d" d="M 3328 2828 
Q 3544 3216 3844 3400 
Q 4144 3584 4550 3584 
Q 5097 3584 5394 3201 
Q 5691 2819 5691 2113 
L 5691 0 
L 5113 0 
L 5113 2094 
Q 5113 2597 4934 2840 
Q 4756 3084 4391 3084 
Q 3944 3084 3684 2787 
Q 3425 2491 3425 1978 
L 3425 0 
L 2847 0 
L 2847 2094 
Q 2847 2600 2669 2842 
Q 2491 3084 2119 3084 
Q 1678 3084 1418 2786 
Q 1159 2488 1159 1978 
L 1159 0 
L 581 0 
L 581 3500 
L 1159 3500 
L 1159 2956 
Q 1356 3278 1631 3431 
Q 1906 3584 2284 3584 
Q 2666 3584 2933 3390 
Q 3200 3197 3328 2828 
z
" transform="scale(0.015625)"/>
      <path id="DejaVuSans-29" d="M 513 4856 
L 1013 4856 
Q 1481 4119 1714 3412 
Q 1947 2706 1947 2009 
Q 1947 1309 1714 600 
Q 1481 -109 1013 -844 
L 513 -844 
Q 928 -128 1133 580 
Q 1338 1288 1338 2009 
Q 1338 2731 1133 3434 
Q 928 4138 513 4856 
z
" transform="scale(0.015625)"/>
     </defs>
     <use xlink:href="#DejaVuSans-41"/>
     <use xlink:href="#DejaVuSans-76" x="62.533203"/>
     <use xlink:href="#DejaVuSans-65" x="121.712891"/>
     <use xlink:href="#DejaVuSans-72" x="183.236328"/>
     <use xlink:href="#DejaVuSans-61" x="224.349609"/>
     <use xlink:href="#DejaVuSans-67" x="285.628906"/>
     <use xlink:href="#DejaVuSans-65" x="349.105469"/>
     <use xlink:href="#DejaVuSans-20" x="410.628906"/>
     <use xlink:href="#DejaVuSans-72" x="442.416016"/>
     <use xlink:href="#DejaVuSans-65" x="481.279297"/>
     <use xlink:href="#DejaVuSans-77" x="542.802734"/>
     <use xlink:href="#DejaVuSans-61" x="624.589844"/>
     <use xlink:href="#DejaVuSans-72" x="685.869141"/>
     <use xlink:href="#DejaVuSans-64" x="725.232422"/>
     <use xlink:href="#DejaVuSans-20" x="788.708984"/>
     <use xlink:href="#DejaVuSans-28" x="820.496094"/>
     <use xlink:href="#DejaVuSans-6e" x="859.509766"/>
     <use xlink:href="#DejaVuSans-65" x="922.888672"/>
     <use xlink:href="#DejaVuSans-67" x="984.412109"/>
     <use xlink:href="#DejaVuSans-61" x="1047.888672"/>
     <use xlink:href="#DejaVuSans-74" x="1109.167969"/>
     <use xlink:href="#DejaVuSans-69" x="1148.376953"/>
     <use xlink:href="#DejaVuSans-76" x="1176.160156"/>
     <use xlink:href="#DejaVuSans-65" x="1235.339844"/>
     <use xlink:href="#DejaVuSans-20" x="1296.863281"/>
     <use xlink:href="#DejaVuSans-77" x="1328.650391"/>
     <use xlink:href="#DejaVuSans-61" x="1410.4375"/>
     <use xlink:href="#DejaVuSans-69" x="1471.716797"/>
     <use xlink:href="#DejaVuSans-74" x="1499.5"/>
     <use xlink:href="#DejaVuSans-69" x="1538.708984"/>
     <use xlink:href="#DejaVuSans-6e" x="1566.492188"/>
     <use xlink:href="#DejaVuSans-67" x="1629.871094"/>
     <use xlink:href="#DejaVuSans-20" x="1693.347656"/>
     <use xlink:href="#DejaVuSans-74" x="1725.134766"/>
     <use xlink:href="#DejaVuSans-69" x="1764.34375"/>
     <use xlink:href="#DejaVuSans-6d" x="1792.126953"/>
     <use xlink:href="#DejaVuSans-65" x="1889.539062"/>
     <use xlink:href="#DejaVuSans-29" x="1951.0625"/>
     <use xlink:href="#DejaVuSans-20" x="1990.076172"/>
     <use xlink:href="#DejaVuSans-70" x="2021.863281"/>
     <use xlink:href="#DejaVuSans-65" x="2085.339844"/>
     <use xlink:href="#DejaVuSans-72" x="2146.863281"/>
     <use xlink:href="#DejaVuSans-20" x="2187.976562"/>
     <use xlink:href="#DejaVuSans-73" x="2219.763672"/>
     <use xlink:href="#DejaVuSans-74" x="2271.863281"/>
     <use xlink:href="#DejaVuSans-65" x="2311.072266"/>
     <use xlink:href="#DejaVuSans-70" x="2372.595703"/>
    </g>
   </g>
  </g>
 </g>
 <defs>
  <clipPath id="p927d87b84d">
   <rect x="48.982813" y="22.318125" width="357.12" height="266.112"/>
  </clipPath>
 </defs>
</svg>
